:version 1.10
:name ASF
:units
  mass 1
  length 1
  angle deg
:documentation
  ASF file generated by Kaydara
:root
  axis xyz
  order  tx ty tz rx ry rz
  position 0 0 0
  orientation 0 0 0
:bonedata
  begin
    id 1
    name RightUpLegDummy
    direction -0.718183 -0.695806 0.00816078
    length 4.904
    axis 0 0 0 xyz
  end
  begin
    id 2
    name RightUpLeg
    direction 3.53373e-006 -0.995788 0.0916898
    length 17.4976
    axis -3.49089 -0.000906625 0.000286804 xyz
    dof rx ry rz
  end
  begin
    id 3
    name RightLeg
    direction 0.00371092 -0.995096 -0.0988419
    length 16.5821
    axis 3.68512 0.0193738 -0.131023 xyz
    dof rx ry rz
  end
  begin
    id 4
    name RightFoot
    direction 0.00079151 -0.46099 0.887405
    length 3.77069
    axis 4.81691e-005 -0.120479 -0.188788 xyz
    dof rx ry rz
  end
  begin
    id 5
    name RightToes
    direction 0 0 0
    length 0
    axis 0 0 0 xyz
    dof rx ry rz
  end
  begin
    id 6
    name SpineDummy
    direction 8.3039e-015 1 4.57515e-016
    length 4.6813
    axis 0 0 0 xyz
  end
  begin
    id 7
    name Spine
    direction -3.15643e-008 0.999988 0.00495137
    length 10.1015
    axis -0.001389 0.000121418 2.40972e-006 xyz
    dof rx ry rz
  end
  begin
    id 8
    name Spine1
    direction 0 0 0
    length 0
    axis -0.001389 0.000121451 1.30017e-006 xyz
    dof rx ry rz
  end
  begin
    id 9
    name HEadDummy
    direction -1.99912e-008 0.999999 0.00127422
    length 3.43865
    axis -0.001389 0.000121451 1.30017e-006 xyz
  end
  begin
    id 10
    name HEad
    direction 0 0 0
    length 0
    axis 0 0 0 xyz
    dof rx ry rz
  end
  begin
    id 11
    name LeftShoulder1Dummy
    direction 0.998891 -0.0402509 -0.0244456
    length 3.5433
    axis -0.001389 0.000121451 1.30017e-006 xyz
  end
  begin
    id 12
    name LeftShoulder1
    direction 0.99951 -0.000327763 0.0313091
    length 4.05031
    axis -0.001389 0.000121451 1.30017e-006 xyz
    dof rx ry rz
  end
  begin
    id 13
    name LeftArm
    direction 0.998561 -0.00100056 -0.0536182
    length 10.3537
    axis -23.1894 0.134784 0.967509 xyz
    dof rx ry rz
  end
  begin
    id 14
    name LeftForeArm
    direction 0.998903 0.00866432 0.046012
    length 8.70632
    axis -9.91835 -0.06569 -0.177794 xyz
    dof rx ry rz
  end
  begin
    id 15
    name LeftHand
    direction 0 0 0
    length 0
    axis 0 0 0 xyz
    dof rx ry rz
  end
  begin
    id 16
    name RightShoulderDummy
    direction -0.998891 -0.0402509 -0.0244414
    length 3.5433
    axis -0.001389 0.000121451 1.30017e-006 xyz
  end
  begin
    id 17
    name RightShoulder
    direction -0.99951 -0.000327807 0.0313133
    length 4.05031
    axis 0.215806 0.000203643 -0.0068026 xyz
    dof rx ry rz
  end
  begin
    id 18
    name RightArm
    direction -0.998573 -0.000999564 -0.053403
    length 10.3947
    axis -23.2009 -0.134239 -0.964101 xyz
    dof rx ry rz
  end
  begin
    id 19
    name RightForeArm
    direction -0.998898 0.00868028 0.0461306
    length 8.68355
    axis -9.92322 0.0658061 0.178868 xyz
    dof rx ry rz
  end
  begin
    id 20
    name RightHand
    direction 0 0 0
    length 0
    axis 0 0 0 xyz
    dof rx ry rz
  end
  begin
    id 21
    name LeftUpLegDummy
    direction 0.718183 -0.695806 0.00816078
    length 4.904
    axis 0 0 0 xyz
  end
  begin
    id 22
    name LeftUpLeg
    direction -6.81752e-006 -0.995793 0.0916337
    length 17.4976
    axis -3.48766 0.00143442 -0.000524262 xyz
    dof rx ry rz
  end
  begin
    id 23
    name LeftLeg
    direction -0.00601358 -0.995091 -0.0987824
    length 16.5821
    axis 3.68178 -0.00654042 -0.000285133 xyz
    dof rx ry rz
  end
  begin
    id 24
    name LeftFoot
    direction -0.00417578 -0.460984 0.887399
    length 3.77069
    axis 1.87233e-006 4.66016e-005 -8.6538e-006 xyz
    dof rx ry rz
  end
  begin
    id 25
    name LeftToes
    direction 0 0 0
    length 0
    axis 0 0 0 xyz
    dof rx ry rz
  end
:hierarchy
  begin
    root RightUpLegDummy SpineDummy LeftUpLegDummy
    RightUpLegDummy RightUpLeg
    RightUpLeg RightLeg
    RightLeg RightFoot
    RightFoot RightToes
    SpineDummy Spine
    Spine Spine1
    Spine1 HEadDummy LeftShoulder1Dummy RightShoulderDummy
    HEadDummy HEad
    LeftShoulder1Dummy LeftShoulder1
    LeftShoulder1 LeftArm
    LeftArm LeftForeArm
    LeftForeArm LeftHand
    RightShoulderDummy RightShoulder
    RightShoulder RightArm
    RightArm RightForeArm
    RightForeArm RightHand
    LeftUpLegDummy LeftUpLeg
    LeftUpLeg LeftLeg
    LeftLeg LeftFoot
    LeftFoot LeftToes
  end

:SAMPLES-PER-SECOND 30
:FULLY-SPECIFIED
:DEGREES
95
root  2.51489 39.2358 2.61309 -142.921 -84.9809 140.95
RightUpLeg  17.3153 -14.0269 -16.5867
RightLeg  17.6234 5.14741 2.22277
RightFoot  -12.2271 0.028135 15.6408
RightToes  0.000481921 0.542163 -0.142578
Spine  6.41112 7.2127 13.8814
Spine1  -0.67717 11.5508 -20.0489
HEad  -23.8598 -10.256 -0.785551
LeftShoulder1  5.10226 -9.09474 -34.4463
LeftArm  -2.3785 63.5569 -14.9572
LeftForeArm  19.4178 -4.43414 -2.49897
LeftHand  -0.25398 0.0180481 5.50724
RightShoulder  5.65139 8.88049 39.5186
RightArm  -14.1478 -3.31883 36.6429
RightForeArm  52.7937 73.5308 32.9694
RightHand  -0.251325 -1.91522 -7.8173
LeftUpLeg  -20.9842 11.7429 -3.21043
LeftLeg  14.7396 3.56428 0.382989
LeftFoot  1.1928 0.182592 -1.74105
LeftToes  1.06247e-005 4.65869e-005 -8.65512e-006
96
root  0.832641 38.9011 2.89429 -134.342 -84.4701 131.397
RightUpLeg  16.6941 -10.3827 -17.3367
RightLeg  24.4032 2.28848 0.763699
RightFoot  -9.06003 -0.464524 19.7176
RightToes  0.000481921 0.542163 -0.142578
Spine  7.52772 6.38286 10.8958
Spine1  -1.49697 10.2813 -18.5808
HEad  -26.8023 -16.3549 4.81886
LeftShoulder1  5.14954 -8.34879 -37.2825
LeftArm  -8.52509 56.178 -21.0379
LeftForeArm  17.9552 -4.68417 -2.37177
LeftHand  -0.25398 0.0180481 5.50724
RightShoulder  5.96056 8.96177 41.5782
RightArm  -14.0741 -10.0375 38.0818
RightForeArm  45.3371 71.8551 30.5213
RightHand  -0.759598 0.778391 -13.9542
LeftUpLeg  -20.4508 11.5539 -5.11952
LeftLeg  20.1244 2.41189 1.42342
LeftFoot  1.39122 -0.140884 1.23465
LeftToes  1.06247e-005 4.65869e-005 -8.65512e-006
97
root  -0.664073 38.7717 3.14195 -124.23 -83.6407 119.513
RightUpLeg  13.2523 -6.06906 -17.6552
RightLeg  35.6779 -2.17903 -1.96379
RightFoot  -0.165669 -1.70103 17.8421
RightToes  0.000481921 0.542163 -0.142578
Spine  9.8042 5.21705 7.11772
Spine1  -2.06944 8.62482 -16.3425
HEad  -30.2274 -21.1882 9.80603
LeftShoulder1  5.89689 -8.95892 -40.9441
LeftArm  -13.1938 46.8488 -25.0958
LeftForeArm  18.8884 -5.49545 -2.1123
LeftHand  -0.25398 0.0180481 5.50724
RightShoulder  6.16467 9.06344 42.7331
RightArm  -11.3777 -13.6979 38.2524
RightForeArm  24.8794 62.9305 20.5243
RightHand  -1.90444 5.84257 -19.9673
LeftUpLeg  -18.27 9.89236 -6.33165
LeftLeg  24.258 3.2659 1.9429
LeftFoot  -1.29349 -0.186196 2.15651
LeftToes  1.06247e-005 4.65869e-005 -8.65512e-006
98
root  -1.96017 38.7911 3.33166 -118.743 -82.7897 112.269
RightUpLeg  7.429 -3.00436 -17.5266
RightLeg  48.3978 -3.90442 -4.97324
RightFoot  9.6438 -2.14278 11.8218
RightToes  0.000481921 0.542163 -0.142578
Spine  11.6499 4.10078 2.81983
Spine1  -1.51966 6.72919 -12.9027
HEad  -31.9746 -23.6557 13.0556
LeftShoulder1  7.20168 -10.613 -44.4153
LeftArm  -17.2346 36.9291 -27.8619
LeftForeArm  20.7081 -8.33631 -1.91022
LeftHand  -0.25398 0.0180481 5.50724
RightShoulder  6.11984 9.07566 42.3569
RightArm  -4.65341 -13.1617 38.4341
RightForeArm  4.91882 46.1077 11.237
RightHand  -2.87197 9.58005 -22.5179
LeftUpLeg  -14.9162 9.47628 -7.35466
LeftLeg  25.9257 3.941 2.42425
LeftFoot  -5.04546 -0.0484667 1.41941
LeftToes  1.06247e-005 4.65869e-005 -8.65512e-006
99
root  -3.17618 38.9133 3.47284 -117.245 -82.6708 109.637
RightUpLeg  0.715568 -1.42016 -16.5124
RightLeg  59.2188 -3.31305 -6.42948
RightFoot  13.646 -1.59843 7.54406
RightToes  0.000481921 0.542163 -0.142578
Spine  12.244 3.05227 -1.21798
Spine1  -0.0730814 4.50998 -8.18752
HEad  -31.556 -24.2676 14.2728
LeftShoulder1  8.38658 -12.1343 -46.8012
LeftArm  -19.683 26.83 -29.3462
LeftForeArm  22.1809 -13.479 -2.3196
LeftHand  -0.25398 0.0180481 5.50724
RightShoulder  6.1406 9.31354 41.6659
RightArm  2.29692 -10.639 38.3486
RightForeArm  -6.06274 26.1713 6.78712
RightHand  -3.02406 10.5548 -22.2104
LeftUpLeg  -11.3095 9.01235 -7.52539
LeftLeg  25.6541 4.51107 2.70105
LeftFoot  -7.27341 0.0137571 0.88487
LeftToes  1.06247e-005 4.65869e-005 -8.65512e-006
100
root  -4.42271 39.2192 3.59471 -115.848 -83.5251 107.623
RightUpLeg  -5.58645 -1.65154 -14.7044
RightLeg  66.128 -2.5349 -6.93257
RightFoot  12.3891 -1.17078 5.98148
RightToes  0.000481921 0.542163 -0.142578
Spine  12.3379 1.86077 -3.84578
Spine1  1.47877 2.17685 -3.34876
HEad  -30.226 -23.9856 14.4289
LeftShoulder1  9.00947 -12.9722 -47.7355
LeftArm  -19.2321 16.8311 -29.5258
LeftForeArm  24.2465 -20.9881 -3.43946
LeftHand  -0.25398 0.0180481 5.50724
RightShoulder  6.46423 9.95394 41.7815
RightArm  -2.47586 -10.3856 36.5394
RightForeArm  -1.22874 11.1197 7.72949
RightHand  -3.14486 11.066 -22.3666
LeftUpLeg  -7.55725 7.84586 -6.87458
LeftLeg  23.8874 4.99439 2.75966
LeftFoot  -7.88493 0.014463 1.09955
LeftToes  1.06247e-005 4.65869e-005 -8.65512e-006
101
root  -5.67087 39.5916 3.70644 -116.759 -84.7575 108.125
RightUpLeg  -11.3351 -2.83664 -12.5165
RightLeg  68.9122 -2.5195 -7.98707
RightFoot  9.76729 -1.06157 6.0562
RightToes  0.000481921 0.542163 -0.142578
Spine  12.9101 0.836318 -4.79765
Spine1  2.58078 0.309181 0.0681364
HEad  -28.613 -22.9407 14.3759
LeftShoulder1  9.09435 -13.3077 -47.2096
LeftArm  -18.3703 7.78086 -29.0137
LeftForeArm  29.8395 -31.0187 -5.11539
LeftHand  -0.25398 0.0180481 5.50724
RightShoulder  6.69551 10.4535 41.7294
RightArm  -9.70753 -14.5787 34.1001
RightForeArm  3.51585 7.77489 7.09369
RightHand  -3.42216 11.6715 -23.441
LeftUpLeg  -3.80543 7.01994 -5.6729
LeftLeg  21.6452 5.25433 2.63834
LeftFoot  -8.78461 0.0309806 0.927209
LeftToes  1.06247e-005 4.65869e-005 -8.65512e-006
102
root  -6.93073 39.902 3.82607 -127.189 -85.7793 118.367
RightUpLeg  -16.72 -3.89817 -10.0512
RightLeg  68.2082 -3.48564 -10.2421
RightFoot  7.77398 -0.895207 5.6146
RightToes  0.000481921 0.542163 -0.142578
Spine  13.7918 0.118008 -4.84584
Spine1  3.00071 -1.01482 2.34379
HEad  -26.0558 -20.5811 13.8273
LeftShoulder1  8.85614 -13.379 -45.7387
LeftArm  -19.8214 0.429752 -28.1769
LeftForeArm  37.7602 -42.295 -7.72337
LeftHand  -0.25398 0.0180481 5.50724
RightShoulder  6.36903 10.2674 40.092
RightArm  -6.19466 -21.1319 32.9601
RightForeArm  -2.95725 14.1989 6.5561
RightHand  -3.3875 11.7957 -23.0443
LeftUpLeg  -0.0230089 7.39592 -3.98951
LeftLeg  19.1058 5.12835 2.0821
LeftFoot  -10.2165 0.0597365 0.177779
LeftToes  1.06247e-005 4.65869e-005 -8.65512e-006
